<mxfile host="app.diagrams.net" agent="Mozilla/5.0 (Windows NT 10.0; Win64; x64) AppleWebKit/537.36 (KHTML, like Gecko) Chrome/134.0.0.0 Safari/537.36" version="26.1.1">
  <diagram id="C5RBs43oDa-KdzZeNtuy" name="Page-1">
    <mxGraphModel dx="2503" dy="746" grid="1" gridSize="10" guides="1" tooltips="1" connect="1" arrows="1" fold="1" page="1" pageScale="1" pageWidth="827" pageHeight="1169" math="0" shadow="0">
      <root>
        <mxCell id="WIyWlLk6GJQsqaUBKTNV-0" />
        <mxCell id="WIyWlLk6GJQsqaUBKTNV-1" parent="WIyWlLk6GJQsqaUBKTNV-0" />
        <mxCell id="FVBeWqvmrLAJW2cj6oj_-0" value="«interface»&lt;br&gt;&lt;b&gt;Lock&lt;span style=&quot;white-space: pre;&quot;&gt;&#x9;&lt;/span&gt;&lt;/b&gt;" style="html=1;whiteSpace=wrap;hachureGap=4;fontFamily=Architects Daughter;fontSource=https%3A%2F%2Ffonts.googleapis.com%2Fcss%3Ffamily%3DArchitects%2BDaughter;fillColor=#fff2cc;strokeColor=#d6b656;" vertex="1" parent="WIyWlLk6GJQsqaUBKTNV-1">
          <mxGeometry x="360" y="260" width="110" height="50" as="geometry" />
        </mxCell>
        <mxCell id="FVBeWqvmrLAJW2cj6oj_-1" value="«interface»&lt;br&gt;&lt;b&gt;Condition&lt;/b&gt;" style="html=1;whiteSpace=wrap;hachureGap=4;fontFamily=Architects Daughter;fontSource=https%3A%2F%2Ffonts.googleapis.com%2Fcss%3Ffamily%3DArchitects%2BDaughter;fillColor=#fff2cc;strokeColor=#d6b656;" vertex="1" parent="WIyWlLk6GJQsqaUBKTNV-1">
          <mxGeometry x="160" y="260" width="110" height="50" as="geometry" />
        </mxCell>
        <mxCell id="FVBeWqvmrLAJW2cj6oj_-2" value="«interface»&lt;br&gt;&lt;b&gt;ReadWriteLock&lt;/b&gt;" style="html=1;whiteSpace=wrap;hachureGap=4;fontFamily=Architects Daughter;fontSource=https%3A%2F%2Ffonts.googleapis.com%2Fcss%3Ffamily%3DArchitects%2BDaughter;fillColor=#fff2cc;strokeColor=#d6b656;" vertex="1" parent="WIyWlLk6GJQsqaUBKTNV-1">
          <mxGeometry x="570" y="260" width="110" height="50" as="geometry" />
        </mxCell>
        <mxCell id="FVBeWqvmrLAJW2cj6oj_-5" value="«Abs»&lt;br&gt;&lt;b&gt;AsbtractOwnalbeLock&lt;/b&gt;" style="html=1;whiteSpace=wrap;hachureGap=4;fontFamily=Architects Daughter;fontSource=https%3A%2F%2Ffonts.googleapis.com%2Fcss%3Ffamily%3DArchitects%2BDaughter;fillColor=#d5e8d4;strokeColor=#82b366;" vertex="1" parent="WIyWlLk6GJQsqaUBKTNV-1">
          <mxGeometry x="885" y="270" width="150" height="50" as="geometry" />
        </mxCell>
        <mxCell id="FVBeWqvmrLAJW2cj6oj_-8" value="" style="edgeStyle=orthogonalEdgeStyle;rounded=0;orthogonalLoop=1;jettySize=auto;html=1;dashed=1;endArrow=block;endFill=0;" edge="1" parent="WIyWlLk6GJQsqaUBKTNV-1" source="FVBeWqvmrLAJW2cj6oj_-6" target="FVBeWqvmrLAJW2cj6oj_-0">
          <mxGeometry relative="1" as="geometry" />
        </mxCell>
        <mxCell id="FVBeWqvmrLAJW2cj6oj_-6" value="ReentrantLock" style="whiteSpace=wrap;html=1;fontFamily=Architects Daughter;fillColor=#e1d5e7;strokeColor=#9673a6;hachureGap=4;fontSource=https%3A%2F%2Ffonts.googleapis.com%2Fcss%3Ffamily%3DArchitects%2BDaughter;" vertex="1" parent="WIyWlLk6GJQsqaUBKTNV-1">
          <mxGeometry x="355" y="385" width="120" height="60" as="geometry" />
        </mxCell>
        <mxCell id="FVBeWqvmrLAJW2cj6oj_-11" value="" style="edgeStyle=orthogonalEdgeStyle;rounded=0;orthogonalLoop=1;jettySize=auto;html=1;strokeColor=default;dashed=1;" edge="1" parent="WIyWlLk6GJQsqaUBKTNV-1" source="FVBeWqvmrLAJW2cj6oj_-9" target="FVBeWqvmrLAJW2cj6oj_-6">
          <mxGeometry relative="1" as="geometry" />
        </mxCell>
        <mxCell id="FVBeWqvmrLAJW2cj6oj_-25" style="edgeStyle=orthogonalEdgeStyle;rounded=0;orthogonalLoop=1;jettySize=auto;html=1;" edge="1" parent="WIyWlLk6GJQsqaUBKTNV-1" source="FVBeWqvmrLAJW2cj6oj_-9" target="FVBeWqvmrLAJW2cj6oj_-23">
          <mxGeometry relative="1" as="geometry" />
        </mxCell>
        <mxCell id="FVBeWqvmrLAJW2cj6oj_-9" value="抽象内部类&lt;div&gt;Sync&lt;/div&gt;&lt;div&gt;（各种内部维护的）&lt;/div&gt;" style="whiteSpace=wrap;html=1;fontFamily=Architects Daughter;fillColor=#d5e8d4;strokeColor=#82b366;hachureGap=4;fontSource=https%3A%2F%2Ffonts.googleapis.com%2Fcss%3Ffamily%3DArchitects%2BDaughter;dashed=1;" vertex="1" parent="WIyWlLk6GJQsqaUBKTNV-1">
          <mxGeometry x="355" y="659" width="120" height="60" as="geometry" />
        </mxCell>
        <mxCell id="FVBeWqvmrLAJW2cj6oj_-16" value="" style="edgeStyle=orthogonalEdgeStyle;rounded=0;orthogonalLoop=1;jettySize=auto;html=1;" edge="1" parent="WIyWlLk6GJQsqaUBKTNV-1" source="FVBeWqvmrLAJW2cj6oj_-12" target="FVBeWqvmrLAJW2cj6oj_-9">
          <mxGeometry relative="1" as="geometry" />
        </mxCell>
        <mxCell id="FVBeWqvmrLAJW2cj6oj_-12" value="FairSync" style="whiteSpace=wrap;html=1;fontFamily=Architects Daughter;hachureGap=4;fontSource=https%3A%2F%2Ffonts.googleapis.com%2Fcss%3Ffamily%3DArchitects%2BDaughter;fillColor=#e1d5e7;strokeColor=#9673a6;" vertex="1" parent="WIyWlLk6GJQsqaUBKTNV-1">
          <mxGeometry x="270" y="799" width="120" height="60" as="geometry" />
        </mxCell>
        <mxCell id="FVBeWqvmrLAJW2cj6oj_-17" value="" style="edgeStyle=orthogonalEdgeStyle;rounded=0;orthogonalLoop=1;jettySize=auto;html=1;" edge="1" parent="WIyWlLk6GJQsqaUBKTNV-1" source="FVBeWqvmrLAJW2cj6oj_-14" target="FVBeWqvmrLAJW2cj6oj_-9">
          <mxGeometry relative="1" as="geometry" />
        </mxCell>
        <mxCell id="FVBeWqvmrLAJW2cj6oj_-14" value="NonFairSync" style="whiteSpace=wrap;html=1;fontFamily=Architects Daughter;fillColor=#e1d5e7;strokeColor=#9673a6;hachureGap=4;fontSource=https%3A%2F%2Ffonts.googleapis.com%2Fcss%3Ffamily%3DArchitects%2BDaughter;" vertex="1" parent="WIyWlLk6GJQsqaUBKTNV-1">
          <mxGeometry x="430" y="799" width="120" height="60" as="geometry" />
        </mxCell>
        <mxCell id="FVBeWqvmrLAJW2cj6oj_-20" style="edgeStyle=orthogonalEdgeStyle;rounded=0;orthogonalLoop=1;jettySize=auto;html=1;entryX=0.5;entryY=1;entryDx=0;entryDy=0;dashed=1;strokeColor=default;endArrow=block;endFill=0;" edge="1" parent="WIyWlLk6GJQsqaUBKTNV-1" source="FVBeWqvmrLAJW2cj6oj_-18" target="FVBeWqvmrLAJW2cj6oj_-1">
          <mxGeometry relative="1" as="geometry" />
        </mxCell>
        <mxCell id="FVBeWqvmrLAJW2cj6oj_-27" style="edgeStyle=orthogonalEdgeStyle;rounded=0;orthogonalLoop=1;jettySize=auto;html=1;entryX=0;entryY=0.5;entryDx=0;entryDy=0;dashed=1;" edge="1" parent="WIyWlLk6GJQsqaUBKTNV-1" source="FVBeWqvmrLAJW2cj6oj_-18" target="FVBeWqvmrLAJW2cj6oj_-23">
          <mxGeometry relative="1" as="geometry" />
        </mxCell>
        <mxCell id="FVBeWqvmrLAJW2cj6oj_-18" value="&lt;div&gt;内部类&lt;/div&gt;ConditionObject" style="whiteSpace=wrap;html=1;fontFamily=Architects Daughter;fillColor=#dae8fc;strokeColor=#6c8ebf;hachureGap=4;fontSource=https%3A%2F%2Ffonts.googleapis.com%2Fcss%3Ffamily%3DArchitects%2BDaughter;" vertex="1" parent="WIyWlLk6GJQsqaUBKTNV-1">
          <mxGeometry x="155" y="585" width="120" height="60" as="geometry" />
        </mxCell>
        <mxCell id="FVBeWqvmrLAJW2cj6oj_-26" style="edgeStyle=orthogonalEdgeStyle;rounded=0;orthogonalLoop=1;jettySize=auto;html=1;entryX=0.5;entryY=1;entryDx=0;entryDy=0;" edge="1" parent="WIyWlLk6GJQsqaUBKTNV-1" source="FVBeWqvmrLAJW2cj6oj_-23" target="FVBeWqvmrLAJW2cj6oj_-5">
          <mxGeometry relative="1" as="geometry" />
        </mxCell>
        <mxCell id="FVBeWqvmrLAJW2cj6oj_-23" value="«Abs»&lt;br&gt;&lt;b&gt;AsbtractQueuedSynchronizer&lt;/b&gt;" style="html=1;whiteSpace=wrap;hachureGap=4;fontFamily=Architects Daughter;fontSource=https%3A%2F%2Ffonts.googleapis.com%2Fcss%3Ffamily%3DArchitects%2BDaughter;fillColor=#d5e8d4;strokeColor=#82b366;" vertex="1" parent="WIyWlLk6GJQsqaUBKTNV-1">
          <mxGeometry x="840" y="585" width="220" height="61" as="geometry" />
        </mxCell>
        <mxCell id="FVBeWqvmrLAJW2cj6oj_-24" value="«Abs»&lt;br&gt;&lt;b&gt;AsbtractQueuedLongSynchronizer&lt;/b&gt;" style="html=1;whiteSpace=wrap;hachureGap=4;fontFamily=Architects Daughter;fontSource=https%3A%2F%2Ffonts.googleapis.com%2Fcss%3Ffamily%3DArchitects%2BDaughter;fillColor=#d5e8d4;strokeColor=#82b366;" vertex="1" parent="WIyWlLk6GJQsqaUBKTNV-1">
          <mxGeometry x="690" y="500" width="220" height="50" as="geometry" />
        </mxCell>
        <mxCell id="FVBeWqvmrLAJW2cj6oj_-35" style="edgeStyle=orthogonalEdgeStyle;rounded=0;orthogonalLoop=1;jettySize=auto;html=1;dashed=1;strokeColor=default;endArrow=block;endFill=0;" edge="1" parent="WIyWlLk6GJQsqaUBKTNV-1">
          <mxGeometry relative="1" as="geometry">
            <mxPoint x="-200" y="330" as="sourcePoint" />
            <mxPoint x="-30" y="330" as="targetPoint" />
            <Array as="points">
              <mxPoint x="-40" y="330" />
            </Array>
          </mxGeometry>
        </mxCell>
        <mxCell id="FVBeWqvmrLAJW2cj6oj_-38" value="实现关系" style="text;html=1;align=center;verticalAlign=middle;resizable=0;points=[];autosize=1;strokeColor=none;fillColor=none;" vertex="1" parent="WIyWlLk6GJQsqaUBKTNV-1">
          <mxGeometry x="-200" y="290" width="70" height="30" as="geometry" />
        </mxCell>
      </root>
    </mxGraphModel>
  </diagram>
</mxfile>
